<?xml version="1.0" encoding="UTF-8" standalone="no"?>
<!DOCTYPE svg PUBLIC "-//W3C//DTD SVG 1.1//EN" "http://www.w3.org/Graphics/SVG/1.1/DTD/svg11.dtd">
<svg width="100%" height="100%" viewBox="0 0 500 500" version="1.1" xmlns="http://www.w3.org/2000/svg" xmlns:xlink="http://www.w3.org/1999/xlink" xml:space="preserve" xmlns:serif="http://www.serif.com/" style="fill-rule:evenodd;clip-rule:evenodd;stroke-linejoin:round;">
    <g transform="matrix(1,0,0,1,-0.478195,0.478205)">
        <g id="Icon">
            <path id="rect4755" d="M480.105,25.392C480.105,22.358 477.642,19.895 474.608,19.895L26.348,19.895C23.314,19.895 20.851,22.358 20.851,25.392L20.851,473.652C20.851,476.686 23.314,479.149 26.348,479.149L474.608,479.149C477.642,479.149 480.105,476.686 480.105,473.652L480.105,25.392Z" style="fill:rgb(214,158,25);stroke:black;stroke-width:40.75px;"/>
        </g>
    </g>
    <g id="Analyzer" transform="matrix(0.666457,0,0,0.666457,53.24,97.576)">
        <path d="M533,168C544.277,169.802 554.349,157.73 563,157C565.959,160.153 561.812,161.748 561,165C558.431,175.283 560.402,192.501 561,207C561.471,218.404 560.569,223.29 565,234C563.078,236.494 566.526,238.109 564,240C569.211,252.211 580.026,244.372 590,250C593.965,266.056 571.446,295.514 566,309C564.812,311.943 565.869,314.151 565,316C562.635,321.03 557.124,325.438 555,331C552.824,336.695 551.904,341.687 549,347C545.701,353.036 540.825,358.396 538,364C536.336,367.301 536.659,371.922 535,375C533.764,377.293 530.917,378.389 530,380C529.084,381.61 530.077,384.938 529,387C524.842,394.961 520.378,402.792 516,412C510.342,423.901 500.328,454.787 487,457C478.98,458.332 472.743,456.136 463,455C425.915,450.678 375.176,444.204 325,439C310.531,437.499 289.323,432.223 277,435C266.189,437.437 257.365,451.908 245,452C231.188,452.104 217.96,445.049 209,430C197.156,430.694 187.956,430.809 177,433C171.646,434.07 163.539,432.369 162,433C160.876,433.461 159.624,436.911 159,437C158.453,437.078 150.096,431.299 145,438C141.778,436.674 129.352,436.618 127,442C118.926,436.117 100.747,439.02 97,443C74.459,441.227 59.733,445.854 25,447C16.249,447.289 11.642,450.232 1,443C1.543,440.202 0.554,438.471 0,434C11.863,428.707 13.776,407.84 28,406C19.479,418.663 32.85,413.356 44,416C37.054,423.612 30.523,417.738 25,425C25.188,427.812 28.263,427.737 29,430C57.832,424.664 77.118,427.682 108,424C144.806,419.612 174.873,414.546 211,416C215.365,420.78 214.533,428.649 219,434C222.236,437.877 231.253,443.403 236,444C254.383,446.312 262.569,433.306 267,420C268.163,420.162 268.779,419.779 269,419C279.349,419.439 284.904,421.749 292,422C295.084,422.109 298.938,421.025 304,422C309.969,423.148 314.513,423.63 321,424C338.963,425.025 357.728,429.566 376,432C411.339,436.707 444.509,438.041 472,442C470.511,420.474 468.286,402.963 466,385C464.153,370.489 466.725,370.803 454,375C444.364,378.178 433.396,378.426 426,381C403.58,378.041 379.355,376.34 351,369C343.535,367.067 337.29,362.902 330,362C304.513,358.847 273.788,356.745 252,375C248.086,378.279 245.156,382.612 240,385C184.478,340.942 140.53,372.23 59,365C53.166,364.482 49.23,364.26 41,363C34.253,361.967 30.406,359.163 25,367C26.287,369.713 29.97,370.03 34,370C34.528,372.108 45.357,373.763 50,374C76.273,375.34 93.201,375.062 132,372C155.644,370.135 184.952,368.681 205,378C208.281,379.525 210.892,381.074 212,385C205.972,387.018 200.58,380.687 193,379C166.088,373.013 133.887,376.663 106,379C89.553,380.378 71.643,379.394 57,379C54.947,378.945 50.576,379.353 48,379C36.572,377.435 27.358,367.339 24,381C35.568,386.542 43.859,385.877 61,387C93.984,389.16 123.303,382.416 153,382C165.583,381.823 177.383,384.369 191,388C194.419,388.912 200.479,386.49 201,393C164.8,383.1 142.885,390.973 93,393C82.452,393.429 72.832,393.268 63,393C46.489,392.552 32.582,384.215 26,397C34.281,403.354 45.091,400.931 55,401C76.241,401.148 96.322,402.326 118,400C140.393,397.597 157.753,393.302 177,396C181.885,400.828 186.444,395.282 189,402C131.612,398.484 95.617,412.169 49,408C34.214,406.678 26.476,402.101 17,399C15.69,391.666 24.8,391.774 24,388C21.997,384.276 21.008,385.72 16,385C13.339,379.719 18.645,376.421 23,373C21.835,369.498 17.97,368.696 16,366C17.8,363.133 19.756,360.423 22,358C17.963,353.704 11.917,351.417 6,349C9.608,343.453 16.619,342.782 22,339C30.924,332.728 38.795,321.391 46,314C52.944,306.876 60.836,301.621 58,294C49.881,272.183 56.843,232.738 93,221C93.433,217.234 90.887,216.446 89,215C66.225,221.793 49.054,242.064 47,268C43.68,269.25 43.868,266.533 39,267C22.646,243.385 5.679,234.41 7,196C23.239,158.859 71.233,135.877 101,139C101.778,131.481 96.192,112.367 101,104C84.366,87.018 99.536,57.942 114,41C115.27,39.513 119.144,38.235 121,36C125.186,30.96 138.851,17.022 147,14C149.034,13.246 152.708,13.659 154,13C176.652,1.436 208.549,0.042 231,4C235.962,4.875 241.127,5.45 243,6C248.944,7.747 259.312,13.59 261,15C262.769,16.477 261.813,18.346 263,20C269.259,28.728 279.161,37.631 284,48C322.3,34.096 350.408,5.074 399,2C399.891,1.557 400.788,1.122 401,0C418.092,2.792 442.519,-1.082 463,13C466.31,15.275 468.984,18.161 473,21C486.073,30.243 497.584,48.605 505,63C510.78,74.22 516.431,87.279 519,99C520.45,105.617 525.181,111.484 526,116C526.273,117.508 524.646,119.516 525,121C525.8,124.344 528.333,127.116 529,132C530.79,145.09 530.28,152.91 533,168ZM258,25C249.347,18.881 239.384,14.503 229,13C196.583,8.308 168.738,8.196 144,26C142.842,28.092 144.468,29.758 141,31C138.591,30.591 138.826,32.826 136,32C123.009,55.341 101.745,64.684 104,98C115.392,107.608 126.144,117.856 139,126C128.313,133.096 118.941,118.816 110,113C103.756,124.766 108.176,138.282 116,154C130.183,135.724 160.444,143.852 173,160C175.515,157.515 181.137,158.137 183,155C178.203,135.873 194.618,118.318 214,122C224.886,124.067 234.355,134.06 240,138C251.225,122.62 259.445,109.105 270,94C270.469,90.531 264.573,93.427 264,91C272.625,82.815 282.569,81.206 285,68C274.18,54.029 268.11,40.44 258,25ZM293,132C308.788,126.22 314.504,111.562 320,95C323.048,85.816 323.273,65.361 312,61C292.854,53.594 279.183,84.683 282,99C278.389,103.212 271.149,105.737 267,111C263.307,115.685 260.241,124.302 256,131C251.154,138.653 244.649,145.759 244,151C243.296,156.683 246.938,162.284 246,168C245.043,173.835 240.938,175.492 241,181C228.763,189.434 219.362,193.95 207,189C196.216,184.682 190.944,171.657 180,168C176.767,174.831 180.878,179.666 182,185C184.419,196.498 180.609,205.177 188,216C198.968,210.242 196.815,196.166 206,190C206.294,192.039 208.706,191.961 209,194C207.635,205.459 200.116,214.534 193,223C212.733,237.937 246.723,241.006 273,227C293.5,206.726 298.604,172.35 291,139C288.01,137.656 284.058,137.275 284,133C285.86,128.78 289.13,131.08 293,132ZM196,136C178.958,156.878 207.828,194.365 233,175C244.92,147.85 212.56,122.05 196,136ZM128,156C126.75,161.692 123.239,163.69 123,168C122.973,168.492 124.967,177.913 125,178C132.529,197.736 170.154,203.054 169,179C168.573,170.095 161.504,166.824 158,159C146.49,154.25 140.25,152.92 128,156ZM485,183C475.929,180.461 464.548,176.255 458,183C444.941,210.575 426.297,238.611 399,255C392.426,249.816 397.483,245.756 396,241C389.987,221.727 357.092,203.907 344,215C354.868,218.583 367.463,224.009 376,235C387.58,249.909 381.248,261.236 365,273C361.906,273.906 359.492,275.492 357,277C357.878,290.22 347.07,299.488 335,303C324.41,294.41 315.928,303.724 304,295C294.538,299.069 285.255,289.379 284,280C269.433,284.261 250.609,319.957 235,311C232.072,309.32 232.012,305.383 233,301C237.124,282.698 269.321,250.788 286,246C288.812,243.908 285.838,242.241 289,241C297.64,236.307 307.147,232.481 315,227C316.028,215.948 326.386,211.243 327,200C318.708,196.948 312.545,193.603 302,194C294.5,210.014 283.761,230.098 267,239C261.622,241.856 254.72,241.935 248,243C215.319,248.183 181.7,232.232 152,207C143.052,207.821 139.544,202.811 130,202C128.469,214.205 119.185,221.53 119,232C131.233,238.688 156.927,231.866 152,251C139.723,267.558 119.779,266.715 104,255C91.056,269.205 81.587,292.432 65,303C53.522,321.855 34.051,332.718 22,351C56.763,364.994 115.874,353.561 152,350C181.276,352.727 211.106,353.183 239,373C248.768,349.53 264.042,326.81 278,299C281.276,298.146 282.724,291.702 286,294C275.693,322.366 259.267,341.516 249,368C261.487,360.388 272.048,352.498 284,350C310.192,344.525 334.394,354.167 365,362C397.772,370.388 431.923,376.878 463,364C464.82,359.777 465.744,357.891 466,354C467.966,354.299 467.983,352.649 469,352C469.574,342.998 475.615,337.779 480,329C482.582,323.83 482.499,317.603 485,312C487.716,305.917 493.108,300.554 496,294C504.662,274.369 514.146,255.234 521,236C522.156,232.756 525.597,230.21 527,227C527.588,225.654 526.495,223.316 527,222C528.338,218.514 532.243,215.807 534,212C540.283,198.388 547.531,181.597 553,170C554.535,169.761 553.146,168.354 552,168C533.24,179.01 506.06,179.23 485,183ZM532,224C526.974,242.86 520.69,244.559 515,265C504.449,287.628 490.461,310.521 481,335C480.064,337.42 480.965,340.417 480,343C477.121,350.71 470.599,357.762 469,364C467.119,371.337 469.568,381.652 473,388C478.521,368.355 487.679,359.037 494,339C500.824,328.736 506.183,318.541 512,307C518.072,294.954 522.064,279.614 531,270C528.096,281.008 522.303,292.704 517,302C515.916,303.9 516.349,308.479 515,312C509.91,325.293 498.825,340.603 492,356C484.521,372.873 472.337,389.513 475,402C492.978,366.005 512.492,322.845 535,286C538.091,291.599 531.639,291.401 532,299C527.519,299.981 529.27,304.491 528,307C513.246,336.15 499.501,361.227 484,395C478.172,402.488 477.1,406.526 475,418C480.485,411.547 483.82,403.647 488,395C495.45,379.586 504.044,366.541 512,351C518.312,338.672 519.182,320.954 531,313C527.566,323.057 521.901,332.036 518,341C516.68,344.033 517.341,347.883 516,351C506.456,373.193 489.828,392.649 483,418C479.787,421.447 476.548,427.897 479,431C485.952,424.522 485.628,415.442 490,407C492.64,401.903 498.377,398.06 500,394C500.555,392.613 499.313,390.315 500,389C500.97,387.141 504.339,386.194 505,384C506.754,378.183 507.056,375.621 509,372C512.189,366.061 514.04,360.3 517,354C528.904,328.658 539.249,311.207 554,283C558.35,274.683 564.678,264.51 566,256C551.603,237.035 555.188,198.417 552,184C543.85,200.22 542.53,210.59 532,224ZM162,206C167.378,208.77 173.498,215.634 179,215C176.854,204.543 179.903,199.097 175,191C173.9,199.24 164.57,199.23 162,206ZM322,224C335.89,216.985 350.087,205.746 354,192C337.04,191.19 325.29,211.85 322,224ZM376,254C376.03,249.651 377.052,243.238 375,241C365.333,230.453 350.068,219.393 338,222C331.077,223.496 320.747,231.707 315,235C303.339,241.683 292.564,247.004 283,254C275.583,259.425 268.149,264.949 264,268C258.198,272.267 251.05,282.654 248,287C249.504,289.829 252.407,291.26 253,295C250.13,299.131 244.545,300.546 242,305C254.417,300.038 266.171,288.146 277,279C280.959,275.656 286.281,270.518 289,267C293.229,261.529 295.65,249.208 305,254C293.253,262.219 284.34,288.697 302,289C300.743,273.405 307.592,260.598 318,260C309.251,271.878 299.639,289.698 319,293C319.664,282.749 320.116,267.817 333,262C333.262,271.588 321.344,282.811 325,290C331.562,302.904 351.946,291.379 352,279C345.729,276.531 343.507,287.599 337,283C346.44,271.04 365.6,267.4 376,254ZM86,228C80.643,231.294 80.294,237.884 72,240C62.802,254.825 56.654,277.349 66,294C80.908,283.743 74.077,261.793 89,251C101.516,236.312 129.547,271.965 144,247C138.2,244.6 134.684,250.248 131,251C130.574,249.093 128.143,249.19 129,246C132.467,245.556 138.784,246.116 141,240C117.66,249.91 109.1,213.8 86,228ZM85,272C86.41,264.781 99.077,259.149 95,253C89.614,257.35 80.05,266.34 85,272ZM241,298C245.236,298.236 246.923,295.924 248,293C246.093,292.574 246.19,290.143 243,291C240.84,293.9 241.66,293.59 241,298Z"/>
        <path d="M166,93C155.875,80.214 161.352,60.132 169,44C174.855,31.651 184.807,15.509 197,16C198.163,20.39 193.785,25.482 189,27C176.68,46.083 164.64,65.075 166,93Z"/>
        <path d="M206,20C205.466,24.8 203.806,28.473 199,29C188.028,48.546 174.762,65.409 175,87C175.056,92.102 181.3,101.309 174,106C162.168,85.531 171.775,54.258 185,36C190.6,28.275 198.88,20.803 206,20Z"/>
        <path d="M251,49C248.714,54.9 241.849,60.796 236,66C234.98,67.314 235.02,69.686 234,71C224.368,75.523 222.125,92.247 212,93C215.831,74.758 234.561,62.948 245,48C247.46,47.868 249.82,47.849 251,49Z"/>
        <path d="M259,52C260.975,52.691 261.666,54.667 262,57C253.413,62.746 248.379,72.046 240,78C239.234,85.972 233.195,94.489 228,92C231.84,76.143 246,62.026 259,52Z"/>
        <path d="M270,60C265.929,66.262 260.413,71.08 254,75C250.492,79.159 248.924,85.257 243,87C244.2,74.143 257.47,64.842 270,60Z"/>
        <path d="M284,133C284.058,137.275 288.01,137.656 291,139C298.604,172.35 293.5,206.726 273,227C246.723,241.006 212.733,237.937 193,223C200.116,214.534 207.635,205.459 209,194C208.706,191.961 206.294,192.039 206,190C196.815,196.166 198.968,210.242 188,216C180.609,205.177 184.419,196.498 182,185C180.878,179.666 176.767,174.831 180,168C190.944,171.657 196.216,184.682 207,189C219.362,193.95 228.763,189.434 241,181C240.938,175.492 245.043,173.835 246,168C246.938,162.284 243.296,156.683 244,151C244.649,145.759 251.154,138.653 256,131C260.241,124.302 263.307,115.685 267,111C271.149,105.737 278.389,103.212 282,99C279.183,84.683 292.854,53.594 312,61C323.273,65.361 323.048,85.816 320,95C314.504,111.562 308.788,126.22 293,132C289.13,131.08 285.86,128.78 284,133ZM285,101C287.517,102.483 287.971,106.029 293,105C297.191,102.191 298.798,96.798 304,95C310.338,103.599 297.739,108.073 294,113C292.677,112.651 288.98,111.387 286,110C282.359,116.321 289.507,119.573 294,121C304.671,114.115 314.791,103.138 310,90C302.875,86.094 297.013,93.021 292,97C290.492,84.959 298.839,74.877 308,68C305.938,67.728 307.762,63.572 305,64C292.66,72.876 285.7,81.153 285,101ZM225,220C227.832,224.88 234.801,223.542 236,216C233.09,212.69 226.94,214.87 225,220Z" style="fill:white;"/>
        <path d="M305,64C307.762,63.572 305.938,67.728 308,68C298.839,74.877 290.492,84.959 292,97C297.013,93.021 302.875,86.094 310,90C314.791,103.138 304.671,114.115 294,121C289.507,119.573 282.359,116.321 286,110C288.98,111.387 292.677,112.651 294,113C297.739,108.073 310.338,103.599 304,95C298.798,96.798 297.191,102.191 293,105C287.971,106.029 287.517,102.483 285,101C285.7,81.153 292.66,72.876 305,64Z"/>
        <path d="M275,66C275.89,66.443 276.789,66.878 277,68C275.699,72.365 272.729,75.062 268,76C262.898,81.657 256.467,91.009 249,91C251.65,80.595 264.23,71.611 275,66Z"/>
        <path d="M135,79C150.627,87.039 158.273,103.061 169,116C166.741,116.56 170.212,117.56 168,119C155.13,111.51 142.52,95.164 135,79Z"/>
        <path d="M121,84C136.187,95.223 151.21,106.839 161,121C157.486,124.711 151.207,118.877 148,116C138.26,107.26 125.52,93.187 121,84Z"/>
        <path d="M115,92L118,92C124.714,104.983 143.622,111.003 148,123C132.42,117.24 121.73,106.6 115,92Z"/>
        <path d="M233,175C207.828,194.365 178.958,156.878 196,136C212.56,122.05 244.92,147.85 233,175ZM204,170C207.522,171.929 210.059,173.909 213,174C214.947,169.993 213.419,164.374 205,164C203.85,165.18 203.87,167.54 204,170Z" style="fill:white;"/>
        <path d="M158,159C161.504,166.824 168.573,170.095 169,179C170.154,203.054 132.529,197.736 125,178C124.967,177.913 122.973,168.492 123,168C123.239,163.69 126.75,161.692 128,156C140.25,152.92 146.49,154.25 158,159ZM162,186C163.3,178.367 157.934,177.399 153,176C149.74,181.76 156.36,189 162,186Z" style="fill:white;"/>
        <path d="M205,164C213.419,164.374 214.947,169.993 213,174C210.059,173.909 207.522,171.929 204,170C203.87,167.54 203.85,165.18 205,164Z"/>
        <path d="M552,168C553.146,168.354 554.535,169.761 553,170C547.531,181.597 540.283,198.388 534,212C532.243,215.807 528.338,218.514 527,222C526.495,223.316 527.588,225.654 527,227C525.597,230.21 522.156,232.756 521,236C514.146,255.234 504.662,274.369 496,294C493.108,300.554 487.716,305.917 485,312C482.499,317.603 482.582,323.83 480,329C475.615,337.779 469.574,342.998 469,352C467.983,352.649 467.966,354.299 466,354C465.744,357.891 464.82,359.777 463,364C431.923,376.878 397.772,370.388 365,362C334.394,354.167 310.192,344.525 284,350C272.048,352.498 261.487,360.388 249,368C259.267,341.516 275.693,322.366 286,294C282.724,291.702 281.276,298.146 278,299C264.042,326.81 248.768,349.53 239,373C211.106,353.183 181.276,352.727 152,350C115.874,353.561 56.763,364.994 22,351C34.051,332.718 53.522,321.855 65,303C81.587,292.432 91.056,269.205 104,255C119.779,266.715 139.723,267.558 152,251C156.927,231.866 131.233,238.688 119,232C119.185,221.53 128.469,214.205 130,202C139.544,202.811 143.052,207.821 152,207C181.7,232.232 215.319,248.183 248,243C254.72,241.935 261.622,241.856 267,239C283.761,230.098 294.5,210.014 302,194C312.545,193.603 318.708,196.948 327,200C326.386,211.243 316.028,215.948 315,227C307.147,232.481 297.64,236.307 289,241C285.838,242.241 288.812,243.908 286,246C269.321,250.788 237.124,282.698 233,301C232.012,305.383 232.072,309.32 235,311C250.609,319.957 269.433,284.261 284,280C285.255,289.379 294.538,299.069 304,295C315.928,303.724 324.41,294.41 335,303C347.07,299.488 357.878,290.22 357,277C359.492,275.492 361.906,273.906 365,273C381.248,261.236 387.58,249.909 376,235C367.463,224.009 354.868,218.583 344,215C357.092,203.907 389.987,221.727 396,241C397.483,245.756 392.426,249.816 399,255C426.297,238.611 444.941,210.575 458,183C464.548,176.255 475.929,180.461 485,183C506.06,179.23 533.24,179.01 552,168Z" style="fill:none;"/>
        <path d="M153,176C157.934,177.399 163.3,178.367 162,186C156.36,189 149.74,181.76 153,176Z"/>
        <path d="M552,184C555.188,198.417 551.603,237.035 566,256C564.678,264.51 558.35,274.683 554,283C539.249,311.207 528.904,328.658 517,354C514.04,360.3 512.189,366.061 509,372C507.056,375.621 506.754,378.183 505,384C504.339,386.194 500.97,387.141 500,389C499.313,390.315 500.555,392.613 500,394C498.377,398.06 492.64,401.903 490,407C485.628,415.442 485.952,424.522 479,431C476.548,427.897 479.787,421.447 483,418C489.828,392.649 506.456,373.193 516,351C517.341,347.883 516.68,344.033 518,341C521.901,332.036 527.566,323.057 531,313C519.182,320.954 518.312,338.672 512,351C504.044,366.541 495.45,379.586 488,395C483.82,403.647 480.485,411.547 475,418C477.1,406.526 478.172,402.488 484,395C499.501,361.227 513.246,336.15 528,307C529.27,304.491 527.519,299.981 532,299C531.639,291.401 538.091,291.599 535,286C512.492,322.845 492.978,366.005 475,402C472.337,389.513 484.521,372.873 492,356C498.825,340.603 509.91,325.293 515,312C516.349,308.479 515.916,303.9 517,302C522.303,292.704 528.096,281.008 531,270C522.064,279.614 518.072,294.954 512,307C506.183,318.541 500.824,328.736 494,339C487.679,359.037 478.521,368.355 473,388C469.568,381.652 467.119,371.337 469,364C470.599,357.762 477.121,350.71 480,343C480.965,340.417 480.064,337.42 481,335C490.461,310.521 504.449,287.628 515,265C520.69,244.559 526.974,242.86 532,224C542.53,210.59 543.85,200.22 552,184ZM529,249C521.26,256.333 520.126,267.077 516,276C508.382,292.476 498.267,310.622 492,326C490.48,329.729 486.671,332.275 485,336C479.907,347.352 476.335,359.421 474,370C498.788,327.324 519.698,272.472 540,233C532.3,234.3 531.29,242.29 529,249Z" style="fill:none;"/>
        <path d="M175,191C179.903,199.097 176.854,204.543 179,215C173.498,215.634 167.378,208.77 162,206C164.57,199.23 173.9,199.24 175,191Z" style="fill:white;"/>
        <path d="M354,192C350.087,205.746 335.89,216.985 322,224C325.29,211.85 337.04,191.19 354,192Z" style="fill:none;"/>
        <path d="M236,216C234.801,223.542 227.832,224.88 225,220C226.94,214.87 233.09,212.69 236,216Z"/>
        <path d="M337,283C343.507,287.599 345.729,276.531 352,279C351.946,291.379 331.562,302.904 325,290C321.344,282.811 333.262,271.588 333,262C320.116,267.817 319.664,282.749 319,293C299.639,289.698 309.251,271.878 318,260C307.592,260.598 300.743,273.405 302,289C284.34,288.697 293.253,262.219 305,254C295.65,249.208 293.229,261.529 289,267C286.281,270.518 280.959,275.656 277,279C266.171,288.146 254.417,300.038 242,305C244.545,300.546 250.13,299.131 253,295C252.407,291.26 249.504,289.829 248,287C251.05,282.654 258.198,272.267 264,268C268.149,264.949 275.583,259.425 283,254C292.564,247.004 303.339,241.683 315,235C320.747,231.707 331.077,223.496 338,222C350.068,219.393 365.333,230.453 375,241C377.052,243.238 376.03,249.651 376,254C365.6,267.4 346.44,271.04 337,283Z" style="fill:white;"/>
        <path d="M141,240C138.784,246.116 132.467,245.556 129,246C128.143,249.19 130.574,249.093 131,251C134.684,250.248 138.2,244.6 144,247C129.547,271.965 101.516,236.312 89,251C74.077,261.793 80.908,283.743 66,294C56.654,277.349 62.802,254.825 72,240C80.294,237.884 80.643,231.294 86,228C109.1,213.8 117.66,249.91 141,240Z" style="fill:white;"/>
        <path d="M540,233C519.698,272.472 498.788,327.324 474,370C476.335,359.421 479.907,347.352 485,336C486.671,332.275 490.48,329.729 492,326C498.267,310.622 508.382,292.476 516,276C520.126,267.077 521.26,256.333 529,249C531.29,242.29 532.3,234.3 540,233Z"/>
        <path d="M95,253C99.077,259.149 86.41,264.781 85,272C80.05,266.34 89.614,257.35 95,253Z" style="fill:white;"/>
        <path d="M243,291C246.19,290.143 246.093,292.574 248,293C246.923,295.924 245.236,298.236 241,298C241.66,293.59 240.84,293.9 243,291Z" style="fill:white;"/>
        <path d="M415,389C408.212,393.921 397.091,392.126 389,392C343.568,391.291 306.872,366.889 263,387C268.479,378.354 280.907,375.924 288,375C320.304,370.791 352.081,383.476 383,385C388.807,385.286 393.535,387.002 399,388C404.07,388.93 410.66,384.17 415,389Z"/>
        <path d="M370,409C334.801,403.857 299.695,396.04 262,405C269.734,394.055 282.802,397.861 291,394C315.69,395.47 347.24,395.5 370,409Z"/>
        <path d="M285,68C282.569,81.206 272.625,82.815 264,91C264.573,93.427 270.469,90.531 270,94C259.445,109.105 251.225,122.62 240,138C234.355,134.06 224.886,124.067 214,122C194.618,118.318 178.203,135.873 183,155C181.137,158.137 175.515,157.515 173,160C160.444,143.852 130.183,135.724 116,154C108.176,138.282 103.756,124.766 110,113C118.941,118.816 128.313,133.096 139,126C126.144,117.856 115.392,107.608 104,98C101.745,64.684 123.009,55.341 136,32C138.826,32.826 138.591,30.591 141,31C144.468,29.758 142.842,28.092 144,26C168.738,8.196 196.583,8.308 229,13C239.384,14.503 249.347,18.881 258,25C268.11,40.44 274.18,54.029 285,68ZM185,36C171.775,54.258 162.168,85.531 174,106C181.3,101.309 175.056,92.102 175,87C174.762,65.409 188.028,48.546 199,29C203.806,28.473 205.466,24.8 206,20C198.88,20.803 190.6,28.275 185,36ZM189,27C193.785,25.482 198.163,20.39 197,16C184.807,15.509 174.855,31.651 169,44C161.352,60.132 155.875,80.214 166,93C164.64,65.075 176.68,46.083 189,27ZM245,48C234.561,62.948 215.831,74.758 212,93C222.125,92.247 224.368,75.523 234,71C235.02,69.686 234.98,67.314 236,66C241.849,60.796 248.714,54.9 251,49C249.82,47.849 247.46,47.868 245,48ZM228,92C233.195,94.489 239.234,85.972 240,78C248.379,72.046 253.413,62.746 262,57C261.666,54.667 260.975,52.691 259,52C246,62.026 231.84,76.143 228,92ZM243,87C248.924,85.257 250.492,79.159 254,75C260.413,71.08 265.929,66.262 270,60C257.47,64.842 244.2,74.143 243,87ZM249,91C256.467,91.009 262.898,81.657 268,76C272.729,75.062 275.699,72.365 277,68C276.789,66.878 275.89,66.443 275,66C264.23,71.611 251.65,80.595 249,91ZM168,119C170.212,117.56 166.741,116.56 169,116C158.273,103.061 150.627,87.039 135,79C142.52,95.164 155.13,111.51 168,119ZM148,116C151.207,118.877 157.486,124.711 161,121C151.21,106.839 136.187,95.223 121,84C125.52,93.187 138.26,107.26 148,116ZM148,123C143.622,111.003 124.714,104.983 118,92L115,92C121.73,106.6 132.42,117.24 148,123Z" style="fill:white;"/>
    </g>
</svg>
